<svg xmlns="http://www.w3.org/2000/svg" xmlns:xlink="http://www.w3.org/1999/xlink" width="25" height="20" viewBox="0 0 25 20">
    <defs>
        <linearGradient id="b" x1="50%" x2="50%" y1="0%" y2="100%">
            <stop offset="0%" stop-opacity="0"/>
            <stop offset="100%" stop-opacity=".333"/>
        </linearGradient>
        <path id="a" d="M23.646 7.923A12.36 12.36 0 0 0 17.1 1.438a12.564 12.564 0 0 0-4.77-.953c-1.676.007-3.3.323-4.815.961a12.273 12.273 0 0 0-3.892 2.592A12.33 12.33 0 0 0 .97 7.931 11.988 11.988 0 0 0 0 12.677c0 1.646.323 3.238.97 4.746.245.585.538 1.083.907 1.668.146.223.385.909.654.909h19.554c.269 0 .507-.686.653-.91.37-.584.662-1.082.908-1.66.646-1.515.97-3.107.97-4.753 0-1.639-.324-3.239-.97-4.754zm-11.338 1c.423 0 .769.339.769.77v4.653a4.27 4.27 0 0 0-1.539 0V9.692c0-.43.347-.769.77-.769zM2.962 17.97a9.992 9.992 0 0 1-.577-1.146 10.476 10.476 0 0 1-.808-3.377h1.538A9.172 9.172 0 0 0 4.7 17.97H2.962zm.161-6.061H1.577c.085-1.162.346-2.293.808-3.377a10.596 10.596 0 0 1 1.792-2.823l1.085 1.077a9.267 9.267 0 0 0-2.139 5.123zM5.27 4.623a10.776 10.776 0 0 1 2.839-1.761c1.1-.454 2.261-.716 3.43-.8V3.53a9.157 9.157 0 0 0-5.192 2.161L5.27 4.623zM9.454 17.97a2.956 2.956 0 0 1 2.854-2.154c1.361 0 2.515.916 2.854 2.154H9.454zm8.815-12.277a9.157 9.157 0 0 0-5.192-2.161V2.06c1.17.085 2.33.339 3.423.8 1.054.439 2 1.039 2.846 1.762l-1.077 1.07zm3.962 11.139c-.162.377-.354.754-.577 1.138h-1.739a9.172 9.172 0 0 0 1.585-4.523h1.538a10.57 10.57 0 0 1-.807 3.385zm-.739-4.923a9.267 9.267 0 0 0-2.138-5.123l1.084-1.077a10.596 10.596 0 0 1 1.793 2.823c.461 1.084.723 2.215.807 3.377h-1.546z"/>
    </defs>
    <g fill="none" fill-rule="evenodd">
        <use fill="#7200CE" xlink:href="#a"/>
        <use fill="url(#b)" style="mix-blend-mode:soft-light" xlink:href="#a"/>
    </g>
</svg>
