<svg xmlns="http://www.w3.org/2000/svg" xmlns:xlink="http://www.w3.org/1999/xlink" width="22" height="22" viewBox="0 0 22 22">
    <defs>
        <linearGradient id="b" x1="50%" x2="50%" y1="0%" y2="100%">
            <stop offset="0%" stop-opacity="0"/>
            <stop offset="100%" stop-opacity=".399"/>
        </linearGradient>
        <path id="a" d="M21.32 17.78a.667.667 0 0 0-.2-.466l-9.553-9.56a5.916 5.916 0 0 0-1.44-6.013 5.937 5.937 0 0 0-8.394-.007A5.9 5.9 0 0 0 0 5.934c0 1.58.613 3.073 1.74 4.193a5.898 5.898 0 0 0 6.02 1.447l1.673 1.673a.706.706 0 0 0 .407.194l1.573.153.94 1.707c.08.153.22.26.38.313l1.074.353.72 1.494c.033.066.08.126.133.18l3.06 3.066c.1.1.227.167.36.187l2.473.427a.587.587 0 0 0 .114.013c.006 0 .013-.007.02-.007a.553.553 0 0 0 .226-.046c.027-.007.047-.027.074-.04a.849.849 0 0 0 .126-.087c.027-.027.04-.053.06-.073.034-.04.06-.08.087-.12.013-.034.02-.067.033-.1.007-.027.02-.054.027-.08.007-.02 0-.04 0-.06 0-.02.013-.04.013-.06l-.013-2.88zM4.807 6a1.19 1.19 0 0 1-.847-.346 1.203 1.203 0 0 1 0-1.687 1.191 1.191 0 0 1 1.687 0 1.191 1.191 0 0 1-.84 2.034z"/>
    </defs>
    <g fill="none" fill-rule="evenodd">
        <use fill="#608FFB" xlink:href="#a"/>
        <use fill="url(#b)" style="mix-blend-mode:soft-light" xlink:href="#a"/>
    </g>
</svg>
