<svg xmlns="http://www.w3.org/2000/svg" xmlns:xlink="http://www.w3.org/1999/xlink" width="18" height="22" viewBox="0 0 18 22">
    <defs>
        <linearGradient id="b" x1="50%" x2="50%" y1="0%" y2="100%">
            <stop offset="0%" stop-opacity="0"/>
            <stop offset="100%" stop-opacity=".399"/>
        </linearGradient>
        <path id="a" d="M17.722 4.817a4.388 4.388 0 0 1-1.608 3.073 4.42 4.42 0 0 1-1.045.647v11.557c0 1.051-.874 1.904-1.953 1.904-1.08 0-1.96-.853-1.96-1.904V8.544a4.648 4.648 0 0 1-1.553-1.142 4.38 4.38 0 0 1-.53-5.094.347.347 0 0 1 .262-.172.37.37 0 0 1 .295.117l1.568 1.774c.406.46 1.1.508 1.574.117a1.1 1.1 0 0 0 .406-.777 1.093 1.093 0 0 0-.282-.832L11.384.823a.346.346 0 0 1-.076-.316c.027-.11.11-.2.22-.234 1.801-.64 3.843-.124 5.094 1.286a4.356 4.356 0 0 1 1.1 3.258z"/>
        <path id="c" d="M5.399 2.595v8.141a.696.696 0 0 1-.694.694H3.463v9.876a.691.691 0 0 1-.694.693.691.691 0 0 1-.693-.693V11.43H.833a.691.691 0 0 1-.693-.693V2.595A2.6 2.6 0 0 1 2.735 0h.062A2.602 2.602 0 0 1 5.4 2.595z"/>
    </defs>
    <g fill="none" fill-rule="evenodd">
        <g>
            <use fill="#608FFB" xlink:href="#a"/>
            <use fill="url(#b)" style="mix-blend-mode:soft-light" xlink:href="#a"/>
        </g>
        <g>
            <use fill="#608FFB" xlink:href="#c"/>
            <use fill="url(#b)" style="mix-blend-mode:soft-light" xlink:href="#c"/>
        </g>
    </g>
</svg>
