<svg xmlns="http://www.w3.org/2000/svg" xmlns:xlink="http://www.w3.org/1999/xlink" width="32" height="22" viewBox="0 0 32 22">
    <defs>
        <linearGradient id="b" x1="50%" x2="50%" y1="0%" y2="100%">
            <stop offset="0%" stop-opacity="0"/>
            <stop offset="100%" stop-opacity=".399"/>
        </linearGradient>
        <path id="a" d="M20.28 17.281s-5.232-1.344-5.97-2.806c-.337-.67-.006-1.526.33-2.116.155-.207.304-.425.449-.656.873-1.396 1.539-3.234 1.607-5.504C16.8 2.784 14.153.012 11.014.002h-.015C7.861.012 5.215 2.784 5.318 6.2c.068 2.27.735 4.108 1.607 5.504.145.23.296.45.45.656.335.59.666 1.446.33 2.116-.737 1.462-5.97 2.806-5.97 2.806a2.543 2.543 0 0 0-1.734 2.41v2.307h22.012V19.69a2.54 2.54 0 0 0-1.734-2.41z"/>
        <path id="c" d="M30.739 18.568c-.058-.02-3.81-.976-4.346-2.04-.247-.487-.004-1.11.241-1.54.112-.15.22-.308.325-.476.635-1.016 1.12-2.352 1.17-4.002.076-2.482-1.85-4.5-4.135-4.506h-.01c-2.285.006-4.212 2.024-4.136 4.506.05 1.65.535 2.986 1.17 4.002.106.168.215.326.325.476.018.031.036.063.052.094a4.984 4.984 0 0 1 3.075 4.61v2.306H32V20.32c0-.816-.53-1.508-1.261-1.752z"/>
    </defs>
    <g fill="none" fill-rule="evenodd">
        <g>
            <use fill="#608FFB" xlink:href="#a"/>
            <use fill="url(#b)" style="mix-blend-mode:soft-light" xlink:href="#a"/>
        </g>
        <g>
            <use fill="#608FFB" xlink:href="#c"/>
            <use fill="url(#b)" style="mix-blend-mode:soft-light" xlink:href="#c"/>
        </g>
    </g>
</svg>
